<svg height="206px" width="206px" version="1.1" id="Layer_1" xmlns="http://www.w3.org/2000/svg" xmlns:xlink="http://www.w3.org/1999/xlink" viewBox="0 0 512 512" xml:space="preserve" fill="#00000" stroke="#00000"><g id="SVGRepo_bgCarrier" stroke-width="0"></g><g id="SVGRepo_tracerCarrier" stroke-linecap="round" stroke-linejoin="round" stroke="#CCCCCC" stroke-width="1.024"></g><g id="SVGRepo_iconCarrier"> <g transform="translate(1 1)"> <path style="fill:#d8b960;" d="M359.96,219.16c0-46.933-38.4-86.187-85.333-86.187c-0.853,0-0.853,0-1.707,0 c38.4,0.853,69.12,40.107,69.973,86.187c23.04,5.12,38.4,30.72,38.4,59.733c0,32.427-19.627,58.88-46.933,58.88h16.213 c32.427,0,56.32-25.6,56.32-58.88C406.04,250.733,388.12,224.28,359.96,219.16"></path> <g> <path style="fill:#d8b960;" d="M152.6,195.267c-1.707,0-3.413,0-4.267-1.707l-17.92-11.093c-4.267-2.56-5.12-7.68-2.56-11.947 c2.56-4.267,7.68-5.12,11.947-2.56l17.92,11.093c4.267,2.56,5.12,7.68,2.56,11.947C158.573,193.56,155.16,195.267,152.6,195.267z M105.667,166.253c-1.707,0-3.413,0-4.267-1.707l-21.333-13.653c-4.267-2.56-5.12-7.68-2.56-11.947 c2.56-4.267,7.68-5.12,11.947-2.56l21.333,13.653c4.267,2.56,5.12,7.68,2.56,11.947 C111.64,164.547,109.08,166.253,105.667,166.253z"></path> <path style="fill:#d8b960;" d="M434.2,383c-2.56,0-4.267-0.853-5.973-2.56l-17.92-17.92c-3.413-3.413-3.413-8.533,0-11.947 c3.413-3.413,8.533-3.413,11.947,0l17.92,17.92c3.413,3.413,3.413,8.533,0,11.947C438.467,382.147,436.76,383,434.2,383z M391.533,340.333c-1.707,0-4.267-0.853-5.973-2.56l0,0c-3.413-3.413-3.413-8.533,0-11.947c3.413-3.413,8.533-3.413,11.947,0 c3.413,3.413,3.413,8.533,0,11.947C395.8,339.48,394.093,340.333,391.533,340.333z"></path> <path style="fill:#d8b960;" d="M67.267,374.467c-2.56,0-5.12-1.707-6.827-3.413c-2.56-4.267-1.707-9.387,2.56-11.947L84.333,344.6 c4.267-2.56,9.387-1.707,11.947,2.56c2.56,4.267,1.707,9.387-2.56,11.947l-21.333,14.507 C70.68,373.613,68.973,374.467,67.267,374.467z M116.76,341.187c-2.56,0-5.12-1.707-6.827-3.413 c-2.56-4.267-1.707-9.387,2.56-11.947l1.707-0.853c4.267-2.56,9.387-1.707,11.947,2.56c2.56,4.267,1.707,9.387-2.56,11.947 l-1.707,0.853C120.173,341.187,118.467,341.187,116.76,341.187z"></path> </g> <g> <path style="fill:#d8b960;" d="M344.6,221.72c0-46.933-32.427-86.187-70.827-86.187c-24.747,0-48.64,16.213-61.44,39.253 c-5.973-4.267-13.653-5.12-21.333-5.12c-19.627,0-34.987,17.92-34.987,40.96c0,0.853,0,1.707,0,2.56c0,0.853,0,1.707,0,2.56 C138.093,225.987,127,248.173,127,273.773c0,34.987,21.333,65.707,51.2,65.707h46.933h48.64h62.293 c27.307,0,46.933-25.6,46.933-58.88C383,253.293,367.64,226.84,344.6,221.72"></path> <path style="fill:#d8b960;" d="M212.333,174.787c9.387-17.067,25.6-30.72,42.667-36.693c-19.627,5.12-37.547,17.92-49.493,33.28 C208.067,172.227,209.773,173.933,212.333,174.787"></path> </g> <path style="fill:#FFFFFF;" d="M127,274.627c0-25.6,11.093-47.787,29.013-58.027c0-0.853,0-1.707,0-2.56c0-0.853,0-1.707,0-2.56 c0-22.187,12.8-38.4,30.72-40.96c-2.56,0-5.973-0.853-8.533-0.853c-23.893,0-41.813,17.92-41.813,40.96c0,0.853,0,1.707,0,2.56 c0,0.853,0,1.707,0,2.56c-21.333,10.24-34.987,32.427-34.987,58.027c0,34.987,26.453,65.707,61.44,65.707h15.36 C148.333,340.333,127,309.613,127,274.627"></path> <g> <path style="fill:#d8b960;" d="M50.2,340.333c-5.12,0-8.533-3.413-8.533-8.533v-34.133c0-5.12,3.413-8.533,8.533-8.533 s8.533,3.413,8.533,8.533V331.8C58.733,336.92,55.32,340.333,50.2,340.333z M50.2,280.6c-5.12,0-8.533-3.413-8.533-8.533v-51.2 c0-5.12,3.413-8.533,8.533-8.533s8.533,3.413,8.533,8.533v51.2C58.733,277.187,55.32,280.6,50.2,280.6z M50.2,195.267 c-5.12,0-8.533-3.413-8.533-8.533v-25.6c0-5.12,3.413-8.533,8.533-8.533s8.533,3.413,8.533,8.533v25.6 C58.733,191.853,55.32,195.267,50.2,195.267z"></path> <path style="fill:#d8b960;" d="M229.4,485.4c-0.853,0-2.56,0-3.413-0.853l-21.333-10.24c-4.267-1.707-5.973-6.827-4.267-11.093 c1.707-4.267,6.827-5.973,11.093-4.267l21.333,10.24c4.267,1.707,5.973,6.827,4.267,11.093 C235.373,483.693,232.813,485.4,229.4,485.4z M185.027,464.067c-0.853,0-2.56,0-3.413-0.853l-46.08-22.187 c-4.267-1.707-5.973-6.827-4.267-11.093s6.827-5.973,11.093-4.267l46.08,22.187c4.267,1.707,5.973,6.827,4.267,11.093 C191,462.36,187.587,464.067,185.027,464.067z M107.373,428.227c-0.853,0-2.56,0-3.413-0.853L80.92,416.28 c-4.267-1.707-5.973-6.827-4.267-11.093s6.827-5.973,11.093-4.267l23.04,11.093c4.267,1.707,5.973,6.827,4.267,11.093 C113.347,426.52,110.787,428.227,107.373,428.227z"></path> <path style="fill:#d8b960;" d="M476.867,331.8c-5.12,0-8.533-3.413-8.533-8.533v-34.133c0-5.12,3.413-8.533,8.533-8.533 c5.12,0,8.533,3.413,8.533,8.533v34.133C485.4,328.387,481.987,331.8,476.867,331.8z M476.867,272.067 c-5.12,0-8.533-3.413-8.533-8.533v-51.2c0-5.12,3.413-8.533,8.533-8.533c5.12,0,8.533,3.413,8.533,8.533v51.2 C485.4,268.653,481.987,272.067,476.867,272.067z M476.867,186.733c-5.12,0-8.533-3.413-8.533-8.533v-25.6 c0-5.12,3.413-8.533,8.533-8.533c5.12,0,8.533,3.413,8.533,8.533v25.6C485.4,183.32,481.987,186.733,476.867,186.733z"></path> <path style="fill:#d8b960;" d="M297.667,485.4c-3.413,0-5.973-1.707-7.68-5.12c-1.707-4.267,0-9.387,4.267-11.093l21.333-10.24 c4.267-1.707,9.387,0,11.093,4.267s0,9.387-4.267,11.093l-21.333,10.24C300.227,485.4,298.52,485.4,297.667,485.4z M342.04,464.067c-3.413,0-5.973-1.707-7.68-5.12c-1.707-4.267,0-9.387,4.267-11.093l46.08-22.187 c4.267-1.707,9.387,0,11.093,4.267s0,9.387-4.267,11.093l-46.08,22.187C344.6,464.067,343.747,464.067,342.04,464.067z M419.693,428.227c-3.413,0-5.973-1.707-7.68-5.12c-1.707-4.267,0-9.387,4.267-11.093l23.04-11.093 c4.267-1.707,9.387,0,11.093,4.267c1.707,4.267,0,9.387-4.267,11.093l-23.04,11.093 C422.253,427.373,420.547,428.227,419.693,428.227z"></path> <path style="fill:#d8b960;" d="M442.733,109.933c-0.853,0-2.56,0-3.413-0.853l-23.893-9.387 c-4.267-1.707-6.827-6.827-4.267-11.093c1.707-4.267,6.827-6.827,11.093-4.267l23.893,9.387c4.267,1.707,6.827,6.827,4.267,11.093 C449.56,108.227,446.147,109.933,442.733,109.933z M387.267,86.893c-0.853,0-2.56,0-3.413-0.853L336.92,67.267 c-4.267-1.707-6.827-6.827-4.267-11.093c1.707-4.267,6.827-6.827,11.093-4.267l46.933,19.627 c4.267,1.707,6.827,6.827,4.267,11.093C394.093,85.187,390.68,86.893,387.267,86.893z M316.44,57.88c-0.853,0-2.56,0-3.413-0.853 l-18.773-7.68c-4.267-1.707-6.827-6.827-4.267-11.093c1.707-4.267,6.827-6.827,11.093-4.267l18.773,7.68 c4.267,1.707,6.827,6.827,4.267,11.093C323.267,56.173,319.853,57.88,316.44,57.88z"></path> <path style="fill:#d8b960;" d="M84.333,109.933c-3.413,0-6.827-1.707-7.68-5.12c-1.707-4.267,0-9.387,4.267-11.093l23.893-9.387 c4.267-1.707,9.387,0,11.093,4.267c1.707,4.267,0,9.387-4.267,11.093l-23.893,9.387C86.893,109.933,85.187,109.933,84.333,109.933 z M139.8,86.893c-3.413,0-6.827-1.707-7.68-5.12c-1.707-4.267,0-9.387,4.267-11.093l46.933-19.627 c4.267-1.707,9.387,0,11.093,4.267s0,9.387-4.267,11.093L143.213,86.04C141.507,86.893,140.653,86.893,139.8,86.893z M210.627,57.88c-3.413,0-6.827-1.707-7.68-5.12c-1.707-4.267,0-9.387,4.267-11.093l18.773-7.68c4.267-1.707,9.387,0,11.093,4.267 c1.707,4.267,0,9.387-4.267,11.093l-18.773,7.68C213.187,57.88,211.48,57.88,210.627,57.88z"></path> <path style="fill:#d8b960;" d="M365.933,195.267c-3.413,0-5.973-1.707-7.68-4.267c-2.56-4.267-0.853-9.387,3.413-11.947 l24.747-13.653c4.267-2.56,9.387-0.853,11.947,3.413c2.56,4.267,0.853,9.387-3.413,11.947L370.2,194.413 C368.493,195.267,367.64,195.267,365.933,195.267z M420.547,165.4c-3.413,0-5.973-1.707-7.68-4.267 c-2.56-4.267-0.853-9.387,3.413-11.947l22.187-12.8c4.267-2.56,9.387-0.853,11.947,3.413c2.56,4.267,0.853,9.387-3.413,11.947 l-22.187,12.8C423.107,164.547,421.4,165.4,420.547,165.4z"></path> <path style="fill:#d8b960;" d="M442.733,383c-2.56,0-4.267-0.853-5.973-2.56l-17.92-17.92c-3.413-3.413-3.413-8.533,0-11.947 c3.413-3.413,8.533-3.413,11.947,0l17.92,17.92c3.413,3.413,3.413,8.533,0,11.947C447,382.147,445.293,383,442.733,383z M400.067,340.333c-1.707,0-4.267-0.853-5.973-2.56l0,0c-3.413-3.413-3.413-8.533,0-11.947c3.413-3.413,8.533-3.413,11.947,0 c3.413,3.413,3.413,8.533,0,11.947C404.333,339.48,402.627,340.333,400.067,340.333z"></path> <path style="fill:#d8b960;" d="M75.8,118.467c0,18.773-15.36,34.133-34.133,34.133S7.533,137.24,7.533,118.467 s15.36-34.133,34.133-34.133S75.8,99.693,75.8,118.467"></path> <path style="fill:#d8b960;" d="M289.133,41.667c0,18.773-15.36,34.133-34.133,34.133s-34.133-15.36-34.133-34.133 S236.227,7.533,255,7.533S289.133,22.893,289.133,41.667"></path> <path style="fill:#d8b960;" d="M289.133,468.333c0,18.773-15.36,34.133-34.133,34.133s-34.133-15.36-34.133-34.133 c0-18.773,15.36-34.133,34.133-34.133S289.133,449.56,289.133,468.333"></path> <path style="fill:#d8b960;" d="M502.467,118.467c0,18.773-15.36,34.133-34.133,34.133c-18.773,0-34.133-15.36-34.133-34.133 s15.36-34.133,34.133-34.133C487.107,84.333,502.467,99.693,502.467,118.467"></path> <path style="fill:#d8b960;" d="M502.467,383c0,18.773-15.36,34.133-34.133,34.133c-18.773,0-34.133-15.36-34.133-34.133 c0-18.773,15.36-34.133,34.133-34.133C487.107,348.867,502.467,364.227,502.467,383"></path> <path style="fill:#d8b960;" d="M75.8,383c0,18.773-15.36,34.133-34.133,34.133S7.533,401.773,7.533,383 c0-18.773,15.36-34.133,34.133-34.133S75.8,364.227,75.8,383"></path> </g> <path d="M41.667,357.4c-5.12,0-8.533-3.413-8.533-8.533v-51.2c0-5.12,3.413-8.533,8.533-8.533s8.533,3.413,8.533,8.533v51.2 C50.2,353.987,46.787,357.4,41.667,357.4z M41.667,272.067c-5.12,0-8.533-3.413-8.533-8.533v-25.6c0-5.12,3.413-8.533,8.533-8.533 s8.533,3.413,8.533,8.533v25.6C50.2,268.653,46.787,272.067,41.667,272.067z M41.667,195.267c-5.12,0-8.533-3.413-8.533-8.533 V152.6c0-5.12,3.413-8.533,8.533-8.533S50.2,147.48,50.2,152.6v34.133C50.2,191.853,46.787,195.267,41.667,195.267z"></path> <path d="M220.867,476.867c-0.853,0-2.56,0-3.413-0.853l-21.333-10.24c-4.267-1.707-5.973-6.827-4.267-11.093 c1.707-4.267,6.827-5.973,11.093-4.267l21.333,10.24c4.267,1.707,5.973,6.827,4.267,11.093 C226.84,475.16,224.28,476.867,220.867,476.867z M168.813,452.12c-0.853,0-2.56,0-3.413-0.853l-23.04-11.093 c-4.267-1.707-5.973-6.827-4.267-11.093c1.707-4.267,6.827-5.973,11.093-4.267l23.04,11.093c4.267,1.707,5.973,6.827,4.267,11.093 C174.787,450.413,171.373,452.12,168.813,452.12z M106.52,423.107c-0.853,0-2.56,0-3.413-0.853l-30.72-14.507 c-4.267-1.707-5.973-6.827-4.267-11.093s6.827-5.973,11.093-4.267l30.72,14.507c4.267,1.707,5.973,6.827,4.267,11.093 C113.347,421.4,109.933,423.107,106.52,423.107z"></path> <path d="M468.333,357.4c-5.12,0-8.533-3.413-8.533-8.533v-25.6c0-5.12,3.413-8.533,8.533-8.533c5.12,0,8.533,3.413,8.533,8.533 v25.6C476.867,353.987,473.453,357.4,468.333,357.4z M468.333,306.2c-5.12,0-8.533-3.413-8.533-8.533v-25.6 c0-5.12,3.413-8.533,8.533-8.533c5.12,0,8.533,3.413,8.533,8.533v25.6C476.867,302.787,473.453,306.2,468.333,306.2z M468.333,246.467c-5.12,0-8.533-3.413-8.533-8.533v-25.6c0-5.12,3.413-8.533,8.533-8.533c5.12,0,8.533,3.413,8.533,8.533v25.6 C476.867,243.053,473.453,246.467,468.333,246.467z M468.333,195.267c-5.12,0-8.533-3.413-8.533-8.533V152.6 c0-5.12,3.413-8.533,8.533-8.533c5.12,0,8.533,3.413,8.533,8.533v34.133C476.867,191.853,473.453,195.267,468.333,195.267z"></path> <path d="M41.667,161.133C17.773,161.133-1,142.36-1,118.467S17.773,75.8,41.667,75.8s42.667,18.773,42.667,42.667 S65.56,161.133,41.667,161.133z M41.667,92.867c-14.507,0-25.6,11.093-25.6,25.6s11.093,25.6,25.6,25.6s25.6-11.093,25.6-25.6 S56.173,92.867,41.667,92.867z"></path> <path d="M255,84.333c-23.893,0-42.667-18.773-42.667-42.667S231.107-1,255-1s42.667,18.773,42.667,42.667 S278.893,84.333,255,84.333z M255,16.067c-14.507,0-25.6,11.093-25.6,25.6s11.093,25.6,25.6,25.6c14.507,0,25.6-11.093,25.6-25.6 S269.507,16.067,255,16.067z"></path> <path d="M255,511c-23.893,0-42.667-18.773-42.667-42.667c0-23.893,18.773-42.667,42.667-42.667s42.667,18.773,42.667,42.667 C297.667,492.227,278.893,511,255,511z M255,442.733c-14.507,0-25.6,11.093-25.6,25.6c0,14.507,11.093,25.6,25.6,25.6 c14.507,0,25.6-11.093,25.6-25.6C280.6,453.827,269.507,442.733,255,442.733z"></path> <path d="M468.333,161.133c-23.893,0-42.667-18.773-42.667-42.667S444.44,75.8,468.333,75.8C492.227,75.8,511,94.573,511,118.467 S492.227,161.133,468.333,161.133z M468.333,92.867c-14.507,0-25.6,11.093-25.6,25.6s11.093,25.6,25.6,25.6 c14.507,0,25.6-11.093,25.6-25.6S482.84,92.867,468.333,92.867z"></path> <path d="M468.333,425.667c-23.893,0-42.667-18.773-42.667-42.667c0-23.893,18.773-42.667,42.667-42.667 C492.227,340.333,511,359.107,511,383C511,406.893,492.227,425.667,468.333,425.667z M468.333,357.4 c-14.507,0-25.6,11.093-25.6,25.6c0,14.507,11.093,25.6,25.6,25.6c14.507,0,25.6-11.093,25.6-25.6 C493.933,368.493,482.84,357.4,468.333,357.4z"></path> <path d="M41.667,425.667C17.773,425.667-1,406.893-1,383c0-23.893,18.773-42.667,42.667-42.667S84.333,359.107,84.333,383 C84.333,406.893,65.56,425.667,41.667,425.667z M41.667,357.4c-14.507,0-25.6,11.093-25.6,25.6c0,14.507,11.093,25.6,25.6,25.6 s25.6-11.093,25.6-25.6C67.267,368.493,56.173,357.4,41.667,357.4z"></path> <path d="M365.08,231.96c-0.853,0-0.853,0-1.707,0c-5.12-0.853-20.48-3.413-29.867-2.56c-4.267,0.853-9.387-2.56-9.387-6.827 c-0.853-4.267,2.56-9.387,6.827-9.387c14.507-2.56,34.987,2.56,35.84,2.56c4.267,0.853,7.68,5.973,6.827,10.24 C371.907,229.4,368.493,231.96,365.08,231.96z"></path> <path d="M220.867,220.867c-5.12,0-8.533-3.413-8.533-8.533c0-18.773-15.36-34.133-34.133-34.133 c-19.627,0-33.28,13.653-33.28,32.427c0,5.12-3.413,8.533-8.533,8.533c-5.12,0-8.533-3.413-8.533-8.533 c0-28.16,21.333-49.493,50.347-49.493s51.2,22.187,51.2,51.2C229.4,217.453,225.987,220.867,220.867,220.867z"></path> <path d="M352.28,348.867H162.84c-38.4,0-69.973-33.28-69.973-74.24c0-26.453,13.653-50.347,34.987-63.147l0,0 c0-28.16,21.333-49.493,50.347-49.493c6.827,0,15.36,0.853,22.187,3.413c17.92-23.04,46.933-37.547,75.947-37.547 c49.493,0,89.6,39.253,93.867,87.893c27.307,8.533,46.08,34.987,46.08,66.56C417.133,319.853,388.973,348.867,352.28,348.867z M178.2,178.2c-19.627,0-33.28,13.653-33.28,32.427v2.56v0.853c0,1.707,0,1.707,0,2.56v5.12l-5.12,2.56 c-18.773,8.533-29.867,28.16-29.867,50.347c0,31.573,23.893,57.173,52.907,57.173h189.44c27.307,0,47.787-21.333,47.787-50.347 c0-25.6-16.213-47.787-39.253-52.053l-6.827-1.707v-6.827c-0.853-42.667-34.987-77.653-77.653-77.653 c-25.6,0-52.053,13.653-66.56,35.84l-4.267,7.68l-6.827-5.12C193.56,178.2,184.173,178.2,178.2,178.2z"></path> <path d="M289.133,476.867c-3.413,0-5.973-1.707-7.68-5.12c-1.707-4.267,0-9.387,4.267-11.093l21.333-10.24 c4.267-1.707,9.387,0,11.093,4.267c1.707,4.267,0,9.387-4.267,11.093l-21.333,10.24 C291.693,476.867,289.987,476.867,289.133,476.867z M341.187,452.12c-3.413,0-5.973-1.707-7.68-5.12 c-1.707-4.267,0-9.387,4.267-11.093l23.04-11.093c4.267-1.707,9.387,0,11.093,4.267c1.707,4.267,0,9.387-4.267,11.093 l-22.187,11.093C343.747,452.12,342.893,452.12,341.187,452.12z M403.48,423.107c-3.413,0-5.973-1.707-7.68-5.12 c-1.707-4.267,0-9.387,4.267-11.093l30.72-14.507c4.267-1.707,9.387,0,11.093,4.267s0,9.387-4.267,11.093l-30.72,14.507 C406.04,423.107,404.333,423.107,403.48,423.107z"></path> <path d="M434.2,101.4c-0.853,0-2.56,0-3.413-0.853l-31.573-12.8c-4.267-1.707-6.827-6.827-4.267-11.093 c1.707-4.267,6.827-6.827,11.093-4.267l31.573,12.8c4.267,1.707,6.827,6.827,4.267,11.093 C441.027,99.693,437.613,101.4,434.2,101.4z M363.373,72.387c-0.853,0-2.56,0-3.413-0.853l-23.893-9.387 c-4.267-2.56-5.973-6.827-4.267-11.093s6.827-6.827,11.093-4.267l23.893,9.387c4.267,1.707,6.827,6.827,4.267,11.093 C369.347,69.827,366.787,72.387,363.373,72.387z M307.907,49.347c-0.853,0-2.56,0-3.413-0.853l-18.773-7.68 c-4.267-1.707-6.827-6.827-4.267-11.093c1.707-4.267,6.827-6.827,11.093-4.267l18.773,7.68c4.267,1.707,6.827,6.827,4.267,11.093 C314.733,47.64,311.32,49.347,307.907,49.347z"></path> <path d="M75.8,101.4c-3.413,0-6.827-1.707-7.68-5.12c-1.707-4.267,0-9.387,4.267-11.093l31.573-12.8 c4.267-1.707,9.387,0,11.093,4.267c1.707,4.267,0,9.387-4.267,11.093l-31.573,12.8C78.36,101.4,76.653,101.4,75.8,101.4z M146.627,72.387c-3.413,0-6.827-1.707-7.68-5.12c-1.707-4.267,0-9.387,4.267-11.093l23.893-9.387 c4.267-1.707,9.387,0,11.093,4.267s0,9.387-4.267,11.093l-23.893,9.387C149.187,71.533,147.48,72.387,146.627,72.387z M202.093,49.347c-3.413,0-6.827-1.707-7.68-5.12c-1.707-4.267,0-9.387,4.267-11.093l18.773-7.68c4.267-1.707,9.387,0,11.093,4.267 s0,9.387-4.267,11.093l-18.773,7.68C204.653,49.347,202.947,49.347,202.093,49.347z"></path> <path d="M357.4,186.733c-3.413,0-5.973-1.707-7.68-4.267c-2.56-4.267-0.853-9.387,3.413-11.947l24.747-13.653 c4.267-2.56,9.387-0.853,11.947,3.413c2.56,4.267,0.853,9.387-3.413,11.947l-24.747,13.653 C359.96,186.733,359.107,186.733,357.4,186.733z M412.013,156.867c-3.413,0-5.973-1.707-7.68-4.267 c-2.56-4.267-0.853-9.387,3.413-11.947l22.187-12.8c4.267-2.56,9.387-0.853,11.947,3.413c2.56,4.267,0.853,9.387-3.413,11.947 l-22.187,12.8C414.573,156.013,412.867,156.867,412.013,156.867z"></path> <path d="M67.267,365.933c-2.56,0-5.12-1.707-6.827-3.413c-2.56-4.267-1.707-9.387,2.56-11.947l21.333-14.507 c4.267-2.56,9.387-1.707,11.947,2.56c2.56,4.267,1.707,9.387-2.56,11.947L72.387,365.08 C70.68,365.08,68.973,365.933,67.267,365.933z M116.76,332.653c-2.56,0-5.12-1.707-6.827-3.413 c-2.56-4.267-1.707-9.387,2.56-11.947l1.707-0.853c4.267-2.56,9.387-1.707,11.947,2.56c2.56,4.267,1.707,9.387-2.56,11.947 l-1.707,0.853C120.173,332.653,118.467,332.653,116.76,332.653z"></path> <path d="M434.2,374.467c-2.56,0-4.267-0.853-5.973-2.56L416.28,359.96c-3.413-3.413-3.413-8.533,0-11.947 c3.413-3.413,8.533-3.413,11.947,0l11.947,11.947c3.413,3.413,3.413,8.533,0,11.947C438.467,373.613,436.76,374.467,434.2,374.467z M404.333,344.6c-2.56,0-4.267-0.853-5.973-2.56l-12.8-12.8c-3.413-3.413-3.413-8.533,0-11.947c3.413-3.413,8.533-3.413,11.947,0 l12.8,12.8c3.413,3.413,3.413,8.533,0,11.947C408.6,343.747,406.04,344.6,404.333,344.6z"></path> <path d="M144.067,195.267c-1.707,0-3.413,0-4.267-1.707l-17.92-11.093c-4.267-2.56-5.12-7.68-2.56-11.947 c2.56-4.267,7.68-5.12,11.947-2.56l17.92,11.093c4.267,2.56,5.12,7.68,2.56,11.947C150.04,193.56,146.627,195.267,144.067,195.267z M97.133,166.253c-1.707,0-3.413,0-4.267-1.707l-21.333-13.653c-4.267-2.56-5.12-7.68-2.56-11.947 c2.56-4.267,7.68-5.12,11.947-2.56l21.333,13.653c4.267,2.56,5.12,7.68,2.56,11.947 C103.107,164.547,100.547,166.253,97.133,166.253z"></path> </g> </g></svg>